HIERARCHY
ROOT Hips
{
 OFFSET 0.000000 0.000000 0.000000
 CHANNELS 6 Xposition Yposition Zposition Yrotation Xrotation Zrotation
 JOINT Chest
 {
  OFFSET 0.000000 9.857222 0.000240
  CHANNELS 3 Yrotation Xrotation Zrotation
  JOINT Chest2
  {
   OFFSET 0.000000 10.876940 -0.000436
   CHANNELS 3 Yrotation Xrotation Zrotation
   JOINT Chest3
   {
    OFFSET 0.000000 9.827798 0.000000
    CHANNELS 3 Yrotation Xrotation Zrotation
    JOINT Chest4
    {
     OFFSET 0.000000 9.827798 0.000000
     CHANNELS 3 Yrotation Xrotation Zrotation
     JOINT Neck
     {
      OFFSET 0.000000 13.831992 0.000000
      CHANNELS 3 Yrotation Xrotation Zrotation
      JOINT Head
      {
       OFFSET 0.000000 9.147643 -0.001036
       CHANNELS 3 Yrotation Xrotation Zrotation
       End Site
       {
        OFFSET 0.000000 17.515799 -0.000541
       }
      }
     }
     JOINT RightCollar
     {
      OFFSET -3.001579 7.717577 0.000000
      CHANNELS 3 Yrotation Xrotation Zrotation
      JOINT RightShoulder
      {
       OFFSET -14.002642 0.000000 0.000000
       CHANNELS 3 Yrotation Xrotation Zrotation
       JOINT RightElbow
       {
        OFFSET -30.053852 0.000000 0.000000
        CHANNELS 3 Yrotation Xrotation Zrotation
        JOINT RightWrist
        {
         OFFSET -24.564923 0.000000 -0.000000
         CHANNELS 3 Yrotation Xrotation Zrotation
         End Site
         {
          OFFSET -18.334355 0.000000 0.000000
         }
        }
       }
      }
     }
     JOINT LeftCollar
     {
      OFFSET 3.001579 7.717577 0.000000
      CHANNELS 3 Yrotation Xrotation Zrotation
      JOINT LeftShoulder
      {
       OFFSET 14.002642 0.000000 0.000000
       CHANNELS 3 Yrotation Xrotation Zrotation
       JOINT LeftElbow
       {
        OFFSET 30.053852 0.000000 0.000000
        CHANNELS 3 Yrotation Xrotation Zrotation
        JOINT LeftWrist
        {
         OFFSET 24.564923 0.000000 -0.000000
         CHANNELS 3 Yrotation Xrotation Zrotation
         End Site
         {
          OFFSET 18.334355 0.000000 0.000000
         }
        }
       }
      }
     }
    }
   }
  }
 }
 JOINT RightHip
 {
  OFFSET -8.003235 -0.001175 -0.000120
  CHANNELS 3 Yrotation Xrotation Zrotation
  JOINT RightKnee
  {
   OFFSET 0.000000 -41.759727 0.000113
   CHANNELS 3 Yrotation Xrotation Zrotation
   JOINT RightAnkle
   {
    OFFSET 0.000000 -40.728748 0.000159
    CHANNELS 3 Yrotation Xrotation Zrotation
    JOINT RightToe
    {
     OFFSET 0.000000 -6.515296 14.732841
     CHANNELS 3 Yrotation Xrotation Zrotation
     End Site
     {
      OFFSET 0.000000 -1.502839 6.412115
     }
    }
   }
  }
 }
 JOINT LeftHip
 {
  OFFSET 8.003235 -0.001175 -0.000120
  CHANNELS 3 Yrotation Xrotation Zrotation
  JOINT LeftKnee
  {
   OFFSET 0.000000 -41.759727 0.000113
   CHANNELS 3 Yrotation Xrotation Zrotation
   JOINT LeftAnkle
   {
    OFFSET 0.000000 -40.728748 0.000159
    CHANNELS 3 Yrotation Xrotation Zrotation
    JOINT LeftToe
    {
     OFFSET 0.000000 -6.515296 14.732841
     CHANNELS 3 Yrotation Xrotation Zrotation
     End Site
     {
      OFFSET 0.000000 -1.502839 6.412115
     }
    }
   }
  }
 }
}
MOTION
Frames: 9
Frame Time: 0.016667
0.000000 88.822259 0.000000 0.000000 -5.826342 0.000000 0.000000 11.116423 0.000000 0.000000 -5.290081 0.000000 0.000000 0.000000 0.000000 0.000000 0.000000 0.000000 0.000000 12.665069 0.000000 0.000000 0.575450 0.000000 0.000000 0.000000 0.000000 0.000000 0.000000 0.000000 2.337306 0.000000 0.000000 -2.337306 0.000000 0.000000 0.000000 0.000000 0.000000 0.000000 0.000000 0.000000 -2.337306 0.000000 0.000000 2.337306 0.000000 0.000000 0.000000 8.578828 0.000000 0.000000 1.905768 0.000000 0.000000 -4.658254 0.000000 0.000000 0.000000 0.000000 0.000000 8.578828 0.000000 0.000000 1.905768 0.000000 0.000000 -4.658254 0.000000 0.000000 0.000000 0.000000
-4.983463 90.198204 13.145524 -32.291524 -6.034489 0.389826 3.452159 -5.228967 -0.547865 1.661542 -2.216060 -0.093802 1.661542 -2.216060 -0.093802 1.245661 -1.662314 -0.064316 -3.462575 31.090956 1.086323 -6.310274 21.665537 2.488507 -2.452958 21.684140 8.619522 2.573966 24.221455 74.845474 143.624256 -9.817245 5.612359 7.750919 -1.343025 -21.067503 -10.758426 29.125737 -13.054646 -21.795935 34.265254 -76.630917 -158.197271 -14.664179 19.505578 0.102576 4.111225 22.049997 -9.570118 5.974404 -4.432015 -0.215295 7.290798 -1.610737 -0.130646 -6.738439 3.899899 0.050556 0.178009 0.039642 -31.277070 16.948438 -2.461291 34.440731 1.754002 -9.089202 7.481342 -9.899324 0.077104 -0.464137 -0.051491 -0.205061
-4.989349 90.192194 13.119438 -32.357131 -5.937811 0.401117 3.503806 -5.276421 -0.590031 1.697213 -2.228332 -0.110276 1.697213 -2.228332 -0.110276 1.272347 -1.671571 -0.076506 -3.480755 31.014250 1.124087 -6.350060 21.526255 2.561788 -2.216529 21.636800 8.659440 3.149632 24.197734 75.322353 144.154735 -1.496873 6.070310 7.503993 -2.523749 -23.183600 -11.477663 29.192849 -13.436132 -21.475338 34.226976 -76.412036 -157.045611 -8.514892 18.619552 0.831554 5.707929 23.068488 -9.751613 5.875550 -4.424504 -0.059879 7.226768 -1.622782 -0.085293 -6.720172 3.877906 0.047820 0.211963 0.041367 -31.217862 16.849062 -2.405912 34.431436 1.764933 -9.078925 7.540844 -9.894003 0.062801 -0.481120 -0.053740 -0.209945
-4.989715 90.191561 13.095449 -32.473612 -5.905005 0.407841 3.583794 -5.286320 -0.633733 1.738484 -2.228380 -0.127323 1.738484 -2.228380 -0.127323 1.303234 -1.671663 -0.089140 -3.496163 30.909799 1.179513 -6.388481 21.336451 2.667202 -1.894355 21.590772 8.790649 3.833889 23.896999 75.854691 145.264657 4.561726 7.306580 6.576396 -2.036629 -25.446758 -12.518106 29.420199 -14.119248 -20.869816 33.987076 -76.033663 -156.258755 -1.407032 17.334496 1.914632 7.151717 23.741202 -9.902536 5.832302 -4.419407 0.101634 7.173327 -1.638202 -0.045141 -6.683740 3.857519 0.045993 0.227001 0.044151 -31.186730 16.806969 -2.398483 34.439312 1.773799 -9.068267 7.579129 -9.883443 0.062729 -0.499944 -0.067033 -0.217805
-4.995153 90.196562 13.061094 -32.602293 -5.863518 0.387759 3.665550 -5.270658 -0.652379 1.773234 -2.222960 -0.136524 1.773234 -2.222960 -0.136524 1.329262 -1.667633 -0.095929 -3.511642 30.775102 1.233221 -6.427532 21.090493 2.771054 -1.509900 21.498891 8.940817 4.630552 23.245315 76.321415 146.166645 10.982900 9.486792 5.590718 -1.569031 -28.096872 -14.004413 29.848180 -15.312593 -19.903258 33.248749 -75.311698 -155.402908 6.649380 15.299808 3.704676 8.241440 24.794699 -9.969024 5.776223 -4.360004 0.207636 7.129602 -1.672692 -0.025937 -6.617928 3.839673 0.048546 0.218760 0.047567 -31.140842 16.771129 -2.370203 34.467888 1.774879 -9.049141 7.699808 -9.869843 0.035091 -0.497258 -0.075046 -0.216751
-4.988444 90.200137 13.025486 -32.753293 -5.768754 0.370141 3.775168 -5.200492 -0.667255 1.793241 -2.224093 -0.136636 1.793241 -2.224093 -0.136636 1.344264 -1.668488 -0.095936 -3.529561 30.590871 1.283123 -6.471559 20.752585 2.870976 -1.053958 21.166430 9.105622 5.388375 22.405300 76.506795 146.951254 17.585000 12.716452 4.731342 -0.843373 -31.383949 -15.566342 30.251854 -16.630639 -18.815746 32.066277 -74.116379 -154.468621 14.100573 13.354470 5.528321 9.050720 26.034851 -9.929207 5.653241 -4.278314 0.231661 7.117585 -1.720678 -0.024619 -6.564539 3.831552 0.057244 0.213383 0.051856 -31.041151 16.694562 -2.326742 34.498271 1.764244 -9.016234 7.787058 -9.882467 0.034388 -0.542053 -0.054962 -0.238886
-5.013997 90.202934 12.995774 -33.001915 -5.932522 0.299183 3.960224 -4.892476 -0.594631 1.818014 -2.151730 -0.124979 1.818014 -2.151730 -0.124979 1.362910 -1.614186 -0.087321 -3.557466 30.318932 1.339492 -6.536713 20.252934 2.988334 -0.503758 20.854883 9.297266 6.049186 20.998873 76.201864 148.098002 23.925485 16.375539 3.374761 0.102327 -34.850676 -16.411399 30.481379 -17.245398 -18.363656 30.434231 -72.685948 -153.384766 20.277230 11.711047 7.248871 9.629804 27.648344 -9.767988 5.792868 -4.156547 0.235710 7.123434 -1.781008 -0.008511 -6.491199 3.812576 0.066155 0.173994 0.057433 -30.554298 16.930728 -2.266636 34.310123 1.761493 -9.004568 7.701870 -9.933205 -0.006299 -0.490845 -0.020074 -0.218636
-5.054459 90.227093 12.962449 -33.158374 -6.480843 0.256894 4.042093 -4.396389 -0.507545 1.829403 -1.949564 -0.104585 1.829403 -1.949564 -0.104585 1.371586 -1.462502 -0.072594 -3.569928 29.972136 1.393582 -6.576483 19.613573 3.102830 0.123007 20.595898 9.391556 6.943970 19.039665 75.508716 148.967906 30.510898 20.471568 2.236547 0.288613 -38.535137 -16.764040 30.314879 -17.378964 -18.912054 28.582240 -71.359380 -152.316544 25.502191 10.702136 9.028857 10.316153 29.000200 -9.653159 6.317916 -4.114879 0.231716 7.136288 -1.852846 -0.018589 -6.404481 3.794352 0.073633 0.105285 0.061074 -29.936774 17.514095 -2.286763 33.991053 1.787679 -9.066808 7.431469 -9.881604 -0.018955 -0.459943 -0.073436 -0.205992
-5.084188 90.267418 12.865710 -33.176474 -6.828887 0.208769 3.990335 -4.090998 -0.417667 1.833279 -1.766541 -0.079921 1.833279 -1.766541 -0.079921 1.374620 -1.325160 -0.054636 -3.566486 29.662760 1.431430 -6.584890 19.041839 3.184136 0.630496 20.731031 9.237780 8.130592 16.355416 74.370025 149.701251 35.657565 22.801474 0.907856 0.533948 -40.118016 -17.275531 30.090179 -17.582431 -19.920985 26.432224 -69.784982 -151.123228 29.984679 10.145531 10.656528 11.160147 29.579036 -9.647026 6.613017 -4.036261 0.254177 7.158644 -1.896255 -0.049966 -6.262375 3.743117 0.072941 0.005115 0.063117 -29.621925 17.799559 -2.158794 33.831621 1.946456 -9.134990 7.224690 -9.759780 -0.080143 -0.370849 -0.176764 -0.165893
